# xmcd
#
# Track frame offsets: 
#        150
#        14503
#        27801
#        46197
#        62225
#        79283
#        92628
#        108640
#        130748
#        151555
#        169117
#
# Disc length: 2463 seconds
#
# Revision: 0
# Processed by: cddbd v1.5.2PL0 Copyright (c) Steve Scherf et al.
# Submitted via: ExactAudioCopy v0.95b4
#
DISCID=81099d0b
DTITLE=Greenhorns - Greenhorns
DYEAR=1900
DGENRE=Country
TTITLE0=Lonesome Me
TTITLE1=Outside Love
TTITLE2=Baila
TTITLE3=Something More
TTITLE4=Give Me One Reason
TTITLE5=Perfect Love
TTITLE6=All Jacked Up
TTITLE7=Me And Bobby McGee
TTITLE8=Travelling Soldier
TTITLE9=Have I Told You Lately
TTITLE10=When You're Gone
EXTD=
EXTT0=
EXTT1=
EXTT2=
EXTT3=
EXTT4=
EXTT5=
EXTT6=
EXTT7=
EXTT8=
EXTT9=
EXTT10=
PLAYORDER=
